<?xml version="1.0" standalone="no"?><!DOCTYPE svg PUBLIC "-//W3C//DTD SVG 1.1//EN" "http://www.w3.org/Graphics/SVG/1.1/DTD/svg11.dtd"><svg class="icon" width="200px" height="200.00px" viewBox="0 0 1024 1024" version="1.1" xmlns="http://www.w3.org/2000/svg"><path fill="#d81e06" d="M510.4 14.4c-273.6 0-494.4 220.8-494.4 494.4s220.8 494.4 494.4 494.4c273.6 0 494.4-220.8 494.4-494.4S784 14.4 510.4 14.4z m206.4 528c-6.4 4.8-12.8 8-20.8 8s-16-3.2-20.8-8l-134.4-126.4v419.2c0 16-12.8 27.2-30.4 27.2s-30.4-12.8-30.4-27.2V414.4l-134.4 126.4c-6.4 4.8-12.8 8-20.8 8s-16-3.2-20.8-8c-4.8-4.8-8-12.8-8-19.2s3.2-14.4 8-19.2l185.6-174.4c6.4-4.8 12.8-8 20.8-8s16 3.2 20.8 8l185.6 174.4c4.8 4.8 8 12.8 8 19.2 1.6 8-1.6 14.4-8 20.8z m-14.4-264h-384c-17.6 0-32-12.8-32-30.4 0-16 14.4-30.4 32-30.4h384c17.6 0 32 12.8 32 30.4 1.6 17.6-12.8 30.4-32 30.4z" /></svg>